<svg xmlns="http://www.w3.org/2000/svg" xmlns:xlink="http://www.w3.org/1999/xlink" width="165.3" viewBox="0 0 165.3 46.55">
  <defs>
    <clipPath id="clip-path">
      <rect id="Rectangle_209" data-name="Rectangle 209" width="165.3" height="46.55" transform="translate(0 0)" fill="none"/>
    </clipPath>
  </defs>
  <g id="Group_369" data-name="Group 369" transform="translate(0 0)" clip-path="url(#clip-path)">
    <path id="Path_160" data-name="Path 160" d="M14.405,46.487l11.234-5.8V0L17.134,4.423a4.752,4.752,0,0,0-2.729,4.3Z" fill="#0092ff"/>
    <path id="Path_161" data-name="Path 161" d="M0,46.551l11.233-5.863V20.525l-8.5,4.368A4.752,4.752,0,0,0,0,29.194Z" fill="#66beff"/>
    <path id="Path_162" data-name="Path 162" d="M96.766,39.344a13.561,13.561,0,0,1-4.756-1.786l1.822-3.364a12.323,12.323,0,0,0,4.04,1.635,15.077,15.077,0,0,0,3.188.388,7.531,7.531,0,0,0,3.645-.6,1.8,1.8,0,0,0,1.065-1.6,1.7,1.7,0,0,0-1.22-1.613,18.786,18.786,0,0,0-3.779-.962,39.355,39.355,0,0,1-4.205-1.029,6.754,6.754,0,0,1-2.771-1.682,4.272,4.272,0,0,1-1.162-3.158,4.838,4.838,0,0,1,1.142-3.192,7.321,7.321,0,0,1,3.276-2.128,14.968,14.968,0,0,1,5-.755,20.624,20.624,0,0,1,4.225.429,13.463,13.463,0,0,1,2.729.854.854.854,0,0,1,.422,1.159l-1.291,2.6a12.345,12.345,0,0,0-6.241-1.511,6.681,6.681,0,0,0-3.294.636,1.89,1.89,0,0,0-1.086,1.664,1.673,1.673,0,0,0,1.221,1.6,20.881,20.881,0,0,0,3.819.979,42.211,42.211,0,0,1,4.146,1.013,6.8,6.8,0,0,1,2.752,1.63,4.111,4.111,0,0,1,1.162,3.09,5.119,5.119,0,0,1-2.538,4.479q-2.692,1.766-7.492,1.659a20.8,20.8,0,0,1-3.819-.439" fill="#252f3f"/>
    <path id="Path_163" data-name="Path 163" d="M114.77,20.6a.8.8,0,0,1,.8-.8h3.379v7.879h11.317V20.6a.8.8,0,0,1,.8-.8h3.379v19.7h-4.183V31.615H118.952v7.879H114.77V20.6Z" fill="#252f3f" fill-rule="evenodd"/>
    <path id="Path_164" data-name="Path 164" d="M157.749,22.934V19.8H138.871a.8.8,0,0,0-.8.8v3.135h7.872V39.494h3.937V23.738h7.07a.8.8,0,0,0,.8-.8" fill="#252f3f" fill-rule="evenodd"/>
    <path id="Path_165" data-name="Path 165" d="M161.363,20.6a.8.8,0,0,1,.8-.8H165.3v19.7h-3.937Z" fill="#252f3f"/>
    <path id="Path_166" data-name="Path 166" d="M73.09,23.738H64.562V30.3H73.09a3.283,3.283,0,0,0,0-6.565M61.429,19.8a.8.8,0,0,0-.8.8V32.931h0v6.563h3.937V34.241h7.132l3.27,4.58a1.606,1.606,0,0,0,1.308.673h4.012L76.069,33.6A7.224,7.224,0,0,0,73.09,19.8Z" fill="#252f3f" fill-rule="evenodd"/>
    <path id="Path_167" data-name="Path 167" d="M83.922,20.6a.8.8,0,0,1,.8-.8h3.133v19.7H83.922Z" fill="#252f3f"/>
    <path id="Path_168" data-name="Path 168" d="M55.591,24.448a9.171,9.171,0,0,0-3.953-3.458A13.8,13.8,0,0,0,45.7,19.781H37.741a.977.977,0,0,0-.976.977V39.491H45.7a13.8,13.8,0,0,0,5.943-1.208,9.167,9.167,0,0,0,3.954-3.459,9.693,9.693,0,0,0,1.39-5.188,9.685,9.685,0,0,0-1.391-5.188M47.183,35.595c-.27,0-6.482-.032-6.482-.032V23.724l6.482.014a5.928,5.928,0,0,1,0,11.856" fill="#252f3f"/>
  </g>
</svg>
