<?xml version="1.0" encoding="UTF-8"?>
<!-- Generator: Adobe Illustrator 25.2.3, SVG Export Plug-In . SVG Version: 6.00 Build 0)  -->
<svg xmlns="http://www.w3.org/2000/svg" xmlns:xlink="http://www.w3.org/1999/xlink" version="1.1" id="Layer_1" x="0px" y="0px" viewBox="0 0 834 452" style="enable-background:new 0 0 834 452;" xml:space="preserve">
<style type="text/css">
	.st0{fill:#1F4F7D;}
	.st1{fill:#29639B;}
	.st2{fill:#3B79AD;}
	.st3{fill:#66BEFF;}
</style>
<rect x="0.5" y="-0.3" class="st0" width="834" height="451.6"></rect>
<g>
	<rect x="50.2" y="9" class="st1" width="775" height="434.2"></rect>
</g>
<rect x="68.2" y="78.7" class="st2" width="148" height="19.2"></rect>
<path class="st0" d="M139.3,120.4H83.8c-2.7,0-5-2.2-5-5v0c0-2.7,2.2-5,5-5h55.5c2.7,0,5,2.2,5,5v0  C144.2,118.2,142,120.4,139.3,120.4z"></path>
<path class="st2" d="M309.6,84.1h-55.5c-2.7,0-5-2.2-5-5v0c0-2.7,2.2-5,5-5h55.5c2.7,0,5,2.2,5,5v0  C314.5,81.9,312.3,84.1,309.6,84.1z"></path>
<rect x="586.6" y="33.8" class="st2" width="139.4" height="25.1"></rect>
<rect x="518.6" y="33.8" class="st0" width="67.4" height="25.1"></rect>
<rect x="735.3" y="33.8" class="st0" width="30.4" height="25.1"></rect>
<rect x="774.3" y="33.8" class="st0" width="30.4" height="25.1"></rect>
<path class="st0" d="M802.5,93H747c-2.7,0-5-2.2-5-5v0c0-2.7,2.2-5,5-5h55.5c2.7,0,5,2.2,5,5v0C807.5,90.8,805.3,93,802.5,93z"></path>
<path class="st0" d="M139.3,149.4H83.8c-2.7,0-5-2.2-5-5l0,0c0-2.7,2.2-5,5-5h55.5c2.7,0,5,2.2,5,5l0,0  C144.2,147.2,142,149.4,139.3,149.4z"></path>
<path class="st0" d="M139.3,210.2H83.8c-2.7,0-5-2.2-5-5v0c0-2.7,2.2-5,5-5h55.5c2.7,0,5,2.2,5,5v0C144.2,208,142,210.2,139.3,210.2  z"></path>
<path class="st0" d="M124.7,237.3h-41c-2.7,0-5-2.2-5-5v0c0-2.7,2.2-5,5-5h41c2.7,0,5,2.2,5,5v0  C129.7,235.1,127.5,237.3,124.7,237.3z"></path>
<path class="st0" d="M124.7,267.1h-41c-2.7,0-5-2.2-5-5v0c0-2.7,2.2-5,5-5h41c2.7,0,5,2.2,5,5v0  C129.7,264.8,127.5,267.1,124.7,267.1z"></path>
<path class="st0" d="M124.7,296.8h-41c-2.7,0-5-2.2-5-5v0c0-2.7,2.2-5,5-5h41c2.7,0,5,2.2,5,5v0  C129.7,294.6,127.5,296.8,124.7,296.8z"></path>
<path class="st0" d="M124.7,326.5h-41c-2.7,0-5-2.2-5-5v0c0-2.7,2.2-5,5-5h41c2.7,0,5,2.2,5,5v0  C129.7,324.3,127.5,326.5,124.7,326.5z"></path>
<path class="st2" d="M179.6,179.2H77.2c-2.7,0-5-2.2-5-5v0c0-2.7,2.2-5,5-5h102.4c2.7,0,5,2.2,5,5v0  C184.5,177,182.3,179.2,179.6,179.2z"></path>
<path class="st2" d="M179.6,44.6H77.2c-2.7,0-5-2.2-5-5v0c0-2.7,2.2-5,5-5h102.4c2.7,0,5,2.2,5,5v0  C184.5,42.3,182.3,44.6,179.6,44.6z"></path>
<path class="st2" d="M179.6,354.3H77.2c-2.7,0-5-2.2-5-5l0,0c0-2.7,2.2-5,5-5h102.4c2.7,0,5,2.2,5,5l0,0  C184.5,352.1,182.3,354.3,179.6,354.3z"></path>
<path class="st3" d="M23.7,42.7l6.6-3.4V15.4l-5,2.6c-1,0.5-1.6,1.4-1.6,2.5V42.7z"></path>
<path class="st3" d="M15.3,42.7l6.6-3.4V27.5l-5,2.6c-1,0.5-1.6,1.4-1.6,2.5V42.7z"></path>
<rect x="248.8" y="123.3" class="st3" width="379.4" height="260.7"></rect>
<rect x="656.7" y="123.8" class="st3" width="146.3" height="43.6"></rect>
<rect x="656.7" y="196" class="st3" width="146.3" height="43.6"></rect>
<rect x="656.7" y="268.3" class="st3" width="146.3" height="43.6"></rect>
<rect x="656.7" y="340.5" class="st3" width="146.3" height="43.6"></rect>
<g>
	<path class="st0" d="M438.6,218.8c19.3,0,34.9,15.6,34.9,34.9s-15.6,34.9-34.9,34.9s-34.9-15.6-34.9-34.9S419.3,218.8,438.6,218.8z    M438.6,223.4c-16.7,0-30.2,13.5-30.2,30.2s13.5,30.2,30.2,30.2c16.7,0,30.2-13.5,30.2-30.2S455.3,223.4,438.6,223.4z"></path>
	<polygon class="st0" points="451.6,253.7 430.2,241.3 430.2,266  "></polygon>
</g>
</svg>
