<?xml version="1.0" encoding="UTF-8"?>
<!-- Generator: Adobe Illustrator 25.2.3, SVG Export Plug-In . SVG Version: 6.00 Build 0)  -->
<svg xmlns="http://www.w3.org/2000/svg" xmlns:xlink="http://www.w3.org/1999/xlink" version="1.1" x="0px" y="0px" viewBox="0 0 834 452" style="enable-background:new 0 0 834 452;" xml:space="preserve">
<style type="text/css">
	.st0{display:none;}
	.st1{display:inline;fill:#1F4F7D;}
	.st2{display:inline;}
	.st3{fill:#29639B;}
	.st4{display:inline;fill:#3B79AD;}
	.st5{display:inline;fill:#66BEFF;}
	.st6{fill:#1F4F7D;}
	.st7{fill:#66BEFF;}
	.st8{fill:#3B79AD;}
	.st9{fill:none;stroke:#3B79AD;stroke-width:2;stroke-miterlimit:10;}
	.st10{fill:#252F3F;}
</style>
<g id="Layer_1" class="st0">
	<rect x="0.5" y="-0.3" class="st1" width="834" height="451.6"></rect>
	<g class="st2">
		<rect x="50.2" y="9" class="st3" width="775" height="434.2"></rect>
	</g>
	<rect x="68.2" y="78.7" class="st4" width="148" height="19.2"></rect>
	<path class="st1" d="M139.3,120.4H83.8c-2.7,0-5-2.2-5-5v0c0-2.7,2.2-5,5-5h55.5c2.7,0,5,2.2,5,5v0   C144.2,118.2,142,120.4,139.3,120.4z"></path>
	<path class="st4" d="M309.6,84.1h-55.5c-2.7,0-5-2.2-5-5v0c0-2.7,2.2-5,5-5h55.5c2.7,0,5,2.2,5,5v0   C314.5,81.9,312.3,84.1,309.6,84.1z"></path>
	<rect x="586.6" y="33.8" class="st4" width="139.4" height="25.1"></rect>
	<rect x="518.6" y="33.8" class="st1" width="67.4" height="25.1"></rect>
	<rect x="735.3" y="33.8" class="st1" width="30.4" height="25.1"></rect>
	<rect x="774.3" y="33.8" class="st1" width="30.4" height="25.1"></rect>
	<path class="st1" d="M802.5,93H747c-2.7,0-5-2.2-5-5v0c0-2.7,2.2-5,5-5h55.5c2.7,0,5,2.2,5,5v0C807.5,90.8,805.3,93,802.5,93z"></path>
	<path class="st1" d="M139.3,149.4H83.8c-2.7,0-5-2.2-5-5l0,0c0-2.7,2.2-5,5-5h55.5c2.7,0,5,2.2,5,5l0,0   C144.2,147.2,142,149.4,139.3,149.4z"></path>
	<path class="st1" d="M139.3,210.2H83.8c-2.7,0-5-2.2-5-5v0c0-2.7,2.2-5,5-5h55.5c2.7,0,5,2.2,5,5v0   C144.2,208,142,210.2,139.3,210.2z"></path>
	<path class="st1" d="M124.7,237.3h-41c-2.7,0-5-2.2-5-5v0c0-2.7,2.2-5,5-5h41c2.7,0,5,2.2,5,5v0   C129.7,235.1,127.5,237.3,124.7,237.3z"></path>
	<path class="st1" d="M124.7,267.1h-41c-2.7,0-5-2.2-5-5v0c0-2.7,2.2-5,5-5h41c2.7,0,5,2.2,5,5v0   C129.7,264.8,127.5,267.1,124.7,267.1z"></path>
	<path class="st1" d="M124.7,296.8h-41c-2.7,0-5-2.2-5-5v0c0-2.7,2.2-5,5-5h41c2.7,0,5,2.2,5,5v0   C129.7,294.6,127.5,296.8,124.7,296.8z"></path>
	<path class="st1" d="M124.7,326.5h-41c-2.7,0-5-2.2-5-5v0c0-2.7,2.2-5,5-5h41c2.7,0,5,2.2,5,5v0   C129.7,324.3,127.5,326.5,124.7,326.5z"></path>
	<path class="st4" d="M179.6,179.2H77.2c-2.7,0-5-2.2-5-5v0c0-2.7,2.2-5,5-5h102.4c2.7,0,5,2.2,5,5v0   C184.5,177,182.3,179.2,179.6,179.2z"></path>
	<path class="st4" d="M179.6,44.6H77.2c-2.7,0-5-2.2-5-5v0c0-2.7,2.2-5,5-5h102.4c2.7,0,5,2.2,5,5v0   C184.5,42.3,182.3,44.6,179.6,44.6z"></path>
	<path class="st4" d="M179.6,354.3H77.2c-2.7,0-5-2.2-5-5l0,0c0-2.7,2.2-5,5-5h102.4c2.7,0,5,2.2,5,5l0,0   C184.5,352.1,182.3,354.3,179.6,354.3z"></path>
	<path class="st5" d="M23.7,42.7l6.6-3.4V15.4l-5,2.6c-1,0.5-1.6,1.4-1.6,2.5V42.7z"></path>
	<path class="st5" d="M15.3,42.7l6.6-3.4V27.5l-5,2.6c-1,0.5-1.6,1.4-1.6,2.5V42.7z"></path>
	<rect x="248.8" y="123.3" class="st5" width="379.4" height="260.7"></rect>
	<rect x="656.7" y="123.8" class="st5" width="146.3" height="43.6"></rect>
	<rect x="656.7" y="196" class="st5" width="146.3" height="43.6"></rect>
	<rect x="656.7" y="268.3" class="st5" width="146.3" height="43.6"></rect>
	<rect x="656.7" y="340.5" class="st5" width="146.3" height="43.6"></rect>
	<g class="st2">
		<path class="st6" d="M438.6,218.8c19.3,0,34.9,15.6,34.9,34.9s-15.6,34.9-34.9,34.9s-34.9-15.6-34.9-34.9S419.3,218.8,438.6,218.8    z M438.6,223.4c-16.7,0-30.2,13.5-30.2,30.2s13.5,30.2,30.2,30.2c16.7,0,30.2-13.5,30.2-30.2S455.3,223.4,438.6,223.4z"></path>
		<polygon class="st6" points="451.6,253.7 430.2,241.3 430.2,266   "></polygon>
	</g>
</g>
<g id="Layer_2">
	<g>
		<rect x="-2" y="-1.8" class="st6" width="837" height="454.6"></rect>
		<path class="st3" d="M833.5-0.3v451.6h-834V-0.3H833.5 M836.5-3.3h-3h-834h-3v3v451.6v3h3h834h3v-3V-0.3V-3.3L836.5-3.3z"></path>
	</g>
	<g>
		<rect x="49.2" y="9" class="st3" width="775" height="434.2"></rect>
	</g>
	<path class="st7" d="M22.7,42.7l6.6-3.4V15.4l-5,2.6c-1,0.5-1.6,1.4-1.6,2.5V42.7z"></path>
	<path class="st7" d="M14.3,42.7l6.6-3.4V27.5l-5,2.6c-1,0.5-1.6,1.4-1.6,2.5V42.7z"></path>
	<rect x="62.2" y="59" class="st8" width="741.2" height="43.6"></rect>
	<g>
		<path class="st6" d="M85.7,37.1c-3.6,0-6.6-2.9-6.6-6.6c0-3.6,2.9-6.6,6.6-6.6h80.7c3.6,0,6.6,2.9,6.6,6.6c0,3.6-2.9,6.6-6.6,6.6    H85.7z"></path>
		<path class="st3" d="M166.4,25.5c2.8,0,5.1,2.3,5.1,5.1s-2.3,5.1-5.1,5.1H85.7c-2.8,0-5.1-2.3-5.1-5.1s2.3-5.1,5.1-5.1H166.4     M166.4,22.5H85.7c-4.4,0-8.1,3.6-8.1,8.1s3.6,8.1,8.1,8.1h80.7c4.4,0,8.1-3.6,8.1-8.1S170.8,22.5,166.4,22.5L166.4,22.5z"></path>
	</g>
	<g>
		<path class="st6" d="M156.7,85.5H85.7c-2.8,0-5.1-2.3-5.1-5.1v0c0-2.8,2.3-5.1,5.1-5.1h70.9c2.8,0,5.1,2.3,5.1,5.1v0    C161.7,83.3,159.5,85.5,156.7,85.5z"></path>
	</g>
	<g>
		<path class="st6" d="M267.1,85.5h-70.9c-2.8,0-5.1-2.3-5.1-5.1v0c0-2.8,2.3-5.1,5.1-5.1h70.9c2.8,0,5.1,2.3,5.1,5.1v0    C272.1,83.3,269.9,85.5,267.1,85.5z"></path>
	</g>
	<g>
		<path class="st6" d="M377.5,85.5h-70.9c-2.8,0-5.1-2.3-5.1-5.1v0c0-2.8,2.3-5.1,5.1-5.1h70.9c2.8,0,5.1,2.3,5.1,5.1v0    C382.5,83.3,380.3,85.5,377.5,85.5z"></path>
	</g>
	<g>
		<path class="st6" d="M85,167.1c-3.6,0-6.6-2.9-6.6-6.6c0-3.6,2.9-6.6,6.6-6.6h15c3.6,0,6.6,2.9,6.6,6.6c0,3.6-2.9,6.6-6.6,6.6H85z    "></path>
		<path class="st3" d="M100,155.5c2.8,0,5.1,2.3,5.1,5.1v0c0,2.8-2.3,5.1-5.1,5.1H85c-2.8,0-5.1-2.3-5.1-5.1v0    c0-2.8,2.3-5.1,5.1-5.1H100 M100,152.5H85c-4.4,0-8.1,3.6-8.1,8.1c0,4.4,3.6,8.1,8.1,8.1h15c4.4,0,8.1-3.6,8.1-8.1    S104.4,152.5,100,152.5L100,152.5z"></path>
	</g>
	<g>
		<path class="st6" d="M85,134.9c-3.6,0-6.6-2.9-6.6-6.6c0-3.6,2.9-6.6,6.6-6.6h15c3.6,0,6.6,2.9,6.6,6.6c0,3.6-2.9,6.6-6.6,6.6H85z    "></path>
		<path class="st3" d="M100,123.3c2.8,0,5.1,2.3,5.1,5.1v0c0,2.8-2.3,5.1-5.1,5.1H85c-2.8,0-5.1-2.3-5.1-5.1v0    c0-2.8,2.3-5.1,5.1-5.1H100 M100,120.3H85c-4.4,0-8.1,3.6-8.1,8.1c0,4.4,3.6,8.1,8.1,8.1h15c4.4,0,8.1-3.6,8.1-8.1    C108,123.9,104.4,120.3,100,120.3L100,120.3z"></path>
	</g>
	<g>
		<path class="st6" d="M85,199.3c-3.6,0-6.6-2.9-6.6-6.6c0-3.6,2.9-6.6,6.6-6.6h15c3.6,0,6.6,2.9,6.6,6.6c0,3.6-2.9,6.6-6.6,6.6H85z    "></path>
		<path class="st3" d="M100,187.7c2.8,0,5.1,2.3,5.1,5.1v0c0,2.8-2.3,5.1-5.1,5.1H85c-2.8,0-5.1-2.3-5.1-5.1v0    c0-2.8,2.3-5.1,5.1-5.1H100 M100,184.7H85c-4.4,0-8.1,3.6-8.1,8.1c0,4.4,3.6,8.1,8.1,8.1h15c4.4,0,8.1-3.6,8.1-8.1    S104.4,184.7,100,184.7L100,184.7z"></path>
	</g>
	<g>
		<path class="st6" d="M85,231.5c-3.6,0-6.6-2.9-6.6-6.6c0-3.6,2.9-6.6,6.6-6.6h15c3.6,0,6.6,2.9,6.6,6.6c0,3.6-2.9,6.6-6.6,6.6H85z    "></path>
		<path class="st3" d="M100,219.9c2.8,0,5.1,2.3,5.1,5.1s-2.3,5.1-5.1,5.1H85c-2.8,0-5.1-2.3-5.1-5.1s2.3-5.1,5.1-5.1H100     M100,216.9H85c-4.4,0-8.1,3.6-8.1,8.1s3.6,8.1,8.1,8.1h15c4.4,0,8.1-3.6,8.1-8.1S104.4,216.9,100,216.9L100,216.9z"></path>
	</g>
	<g>
		<path class="st6" d="M85,263.7c-3.6,0-6.6-2.9-6.6-6.6c0-3.6,2.9-6.6,6.6-6.6h15c3.6,0,6.6,2.9,6.6,6.6c0,3.6-2.9,6.6-6.6,6.6H85z    "></path>
		<path class="st3" d="M100,252.1c2.8,0,5.1,2.3,5.1,5.1s-2.3,5.1-5.1,5.1H85c-2.8,0-5.1-2.3-5.1-5.1s2.3-5.1,5.1-5.1H100     M100,249.1H85c-4.4,0-8.1,3.6-8.1,8.1c0,4.4,3.6,8.1,8.1,8.1h15c4.4,0,8.1-3.6,8.1-8.1C108,252.7,104.4,249.1,100,249.1    L100,249.1z"></path>
	</g>
	<g>
		<path class="st6" d="M85,295.9c-3.6,0-6.6-2.9-6.6-6.6c0-3.6,2.9-6.6,6.6-6.6h15c3.6,0,6.6,2.9,6.6,6.6c0,3.6-2.9,6.6-6.6,6.6H85z    "></path>
		<path class="st3" d="M100,284.3c2.8,0,5.1,2.3,5.1,5.1v0c0,2.8-2.3,5.1-5.1,5.1H85c-2.8,0-5.1-2.3-5.1-5.1v0    c0-2.8,2.3-5.1,5.1-5.1H100 M100,281.3H85c-4.4,0-8.1,3.6-8.1,8.1s3.6,8.1,8.1,8.1h15c4.4,0,8.1-3.6,8.1-8.1    C108,284.9,104.4,281.3,100,281.3L100,281.3z"></path>
	</g>
	<g>
		<path class="st6" d="M85,328.1c-3.6,0-6.6-2.9-6.6-6.6s2.9-6.6,6.6-6.6h15c3.6,0,6.6,2.9,6.6,6.6s-2.9,6.6-6.6,6.6H85z"></path>
		<path class="st3" d="M100,316.5c2.8,0,5.1,2.3,5.1,5.1s-2.3,5.1-5.1,5.1H85c-2.8,0-5.1-2.3-5.1-5.1s2.3-5.1,5.1-5.1H100     M100,313.5H85c-4.4,0-8.1,3.6-8.1,8.1s3.6,8.1,8.1,8.1h15c4.4,0,8.1-3.6,8.1-8.1S104.4,313.5,100,313.5L100,313.5z"></path>
	</g>
	<g>
		<path class="st6" d="M85,360.3c-3.6,0-6.6-2.9-6.6-6.6c0-3.6,2.9-6.6,6.6-6.6h15c3.6,0,6.6,2.9,6.6,6.6c0,3.6-2.9,6.6-6.6,6.6H85z    "></path>
		<path class="st3" d="M100,348.7c2.8,0,5.1,2.3,5.1,5.1s-2.3,5.1-5.1,5.1H85c-2.8,0-5.1-2.3-5.1-5.1s2.3-5.1,5.1-5.1H100     M100,345.7H85c-4.4,0-8.1,3.6-8.1,8.1s3.6,8.1,8.1,8.1h15c4.4,0,8.1-3.6,8.1-8.1S104.4,345.7,100,345.7L100,345.7z"></path>
	</g>
	<g>
		<path class="st6" d="M85,392.5c-3.6,0-6.6-2.9-6.6-6.6c0-3.6,2.9-6.6,6.6-6.6h15c3.6,0,6.6,2.9,6.6,6.6c0,3.6-2.9,6.6-6.6,6.6H85z    "></path>
		<path class="st3" d="M100,380.9c2.8,0,5.1,2.3,5.1,5.1s-2.3,5.1-5.1,5.1H85c-2.8,0-5.1-2.3-5.1-5.1s2.3-5.1,5.1-5.1H100     M100,377.9H85c-4.4,0-8.1,3.6-8.1,8.1s3.6,8.1,8.1,8.1h15c4.4,0,8.1-3.6,8.1-8.1S104.4,377.9,100,377.9L100,377.9z"></path>
	</g>
	<g>
		<path class="st6" d="M645.5,424.7c-3.6,0-6.6-2.9-6.6-6.6c0-3.6,2.9-6.6,6.6-6.6h85.8c3.6,0,6.6,2.9,6.6,6.6    c0,3.6-2.9,6.6-6.6,6.6H645.5z"></path>
		<path class="st3" d="M731.4,413.1c2.8,0,5.1,2.3,5.1,5.1v0c0,2.8-2.3,5.1-5.1,5.1h-85.8c-2.8,0-5.1-2.3-5.1-5.1v0    c0-2.8,2.3-5.1,5.1-5.1H731.4 M731.4,410.1h-85.8c-4.4,0-8.1,3.6-8.1,8.1s3.6,8.1,8.1,8.1h85.8c4.4,0,8.1-3.6,8.1-8.1    C739.4,413.7,735.8,410.1,731.4,410.1L731.4,410.1z"></path>
	</g>
	<g>
		<path class="st6" d="M416.1,424.7c-3.6,0-6.6-2.9-6.6-6.6c0-3.6,2.9-6.6,6.6-6.6h85.8c3.6,0,6.6,2.9,6.6,6.6    c0,3.6-2.9,6.6-6.6,6.6H416.1z"></path>
		<path class="st3" d="M501.9,413.1c2.8,0,5.1,2.3,5.1,5.1v0c0,2.8-2.3,5.1-5.1,5.1h-85.8c-2.8,0-5.1-2.3-5.1-5.1v0    c0-2.8,2.3-5.1,5.1-5.1H501.9 M501.9,410.1h-85.8c-4.4,0-8.1,3.6-8.1,8.1s3.6,8.1,8.1,8.1h85.8c4.4,0,8.1-3.6,8.1-8.1    C510,413.7,506.4,410.1,501.9,410.1L501.9,410.1z"></path>
	</g>
	<g>
		<path class="st6" d="M186.6,424.7c-3.6,0-6.6-2.9-6.6-6.6c0-3.6,2.9-6.6,6.6-6.6h85.8c3.6,0,6.6,2.9,6.6,6.6    c0,3.6-2.9,6.6-6.6,6.6H186.6z"></path>
		<path class="st3" d="M272.5,413.1c2.8,0,5.1,2.3,5.1,5.1v0c0,2.8-2.3,5.1-5.1,5.1h-85.8c-2.8,0-5.1-2.3-5.1-5.1v0    c0-2.8,2.3-5.1,5.1-5.1H272.5 M272.5,410.1h-85.8c-4.4,0-8.1,3.6-8.1,8.1s3.6,8.1,8.1,8.1h85.8c4.4,0,8.1-3.6,8.1-8.1    C280.5,413.7,276.9,410.1,272.5,410.1L272.5,410.1z"></path>
	</g>
	<rect x="125.8" y="123.7" class="st9" width="1" height="273.7"></rect>
	
		<rect x="460" y="-211.1" transform="matrix(-1.836970e-16 1 -1 -1.836970e-16 585.1289 -335.8895)" class="st9" width="1" height="671.4"></rect>
	
		<rect x="460" y="-177" transform="matrix(-1.836970e-16 1 -1 -1.836970e-16 619.2094 -301.809)" class="st9" width="1" height="671.4"></rect>
	
		<rect x="460" y="-142.9" transform="matrix(-1.836970e-16 1 -1 -1.836970e-16 653.29 -267.7285)" class="st9" width="1" height="671.4"></rect>
	
		<rect x="460" y="-108.8" transform="matrix(-1.836970e-16 1 -1 -1.836970e-16 687.3705 -233.648)" class="st9" width="1" height="671.4"></rect>
	
		<rect x="460" y="-74.7" transform="matrix(-1.836970e-16 1 -1 -1.836970e-16 721.451 -199.5675)" class="st9" width="1" height="671.4"></rect>
	
		<rect x="460" y="-40.7" transform="matrix(-1.836970e-16 1 -1 -1.836970e-16 755.5315 -165.487)" class="st9" width="1" height="671.4"></rect>
	
		<rect x="460" y="-6.6" transform="matrix(-1.836970e-16 1 -1 -1.836970e-16 789.612 -131.4064)" class="st9" width="1" height="671.4"></rect>
	
		<rect x="460" y="27.5" transform="matrix(-1.836970e-16 1 -1 -1.836970e-16 823.6925 -97.3259)" class="st9" width="1" height="671.4"></rect>
	
		<rect x="460" y="61.6" transform="matrix(-1.836970e-16 1 -1 -1.836970e-16 857.773 -63.2454)" class="st9" width="1" height="671.4"></rect>
	<rect x="349.3" y="123.7" class="st9" width="1" height="273.7"></rect>
	<rect x="572.7" y="123.7" class="st9" width="1" height="273.7"></rect>
	<rect x="796.2" y="123.7" class="st9" width="1" height="273.7"></rect>
	<rect x="216.9" y="283.3" class="st7" width="39.9" height="40.9"></rect>
	<rect x="235.3" y="243.4" class="st7" width="3" height="120.7"></rect>
	<rect x="224.3" y="240.9" class="st7" width="24.9" height="3"></rect>
	<rect x="224.3" y="360.6" class="st7" width="24.9" height="3"></rect>
	<path class="st7" d="M237.5,225c-4.7,0-8.5-3.8-8.5-8.5s3.8-8.5,8.5-8.5s8.5,3.8,8.5,8.5S242.2,225,237.5,225z M237.5,211   c-3,0-5.5,2.5-5.5,5.5s2.5,5.5,5.5,5.5s5.5-2.5,5.5-5.5S240.6,211,237.5,211z"></path>
	<path class="st7" d="M237.5,202c-4.7,0-8.5-3.8-8.5-8.5s3.8-8.5,8.5-8.5s8.5,3.8,8.5,8.5S242.2,202,237.5,202z M237.5,188   c-3,0-5.5,2.5-5.5,5.5s2.5,5.5,5.5,5.5s5.5-2.5,5.5-5.5S240.6,188,237.5,188z"></path>
	<path class="st7" d="M237.5,389.6c-4.7,0-8.5-3.8-8.5-8.5s3.8-8.5,8.5-8.5s8.5,3.8,8.5,8.5S242.2,389.6,237.5,389.6z M237.5,375.6   c-3,0-5.5,2.5-5.5,5.5s2.5,5.5,5.5,5.5s5.5-2.5,5.5-5.5S240.6,375.6,237.5,375.6z"></path>
	<rect x="444.3" y="273.3" class="st7" width="39.9" height="50.9"></rect>
	<rect x="462.8" y="233.4" class="st7" width="3" height="130.7"></rect>
	<rect x="451.8" y="230.9" class="st7" width="24.9" height="3"></rect>
	<rect x="451.8" y="360.6" class="st7" width="24.9" height="3"></rect>
	<path class="st7" d="M465,215c-4.7,0-8.5-3.8-8.5-8.5s3.8-8.5,8.5-8.5s8.5,3.8,8.5,8.5S469.7,215,465,215z M465,201   c-3,0-5.5,2.5-5.5,5.5s2.5,5.5,5.5,5.5s5.5-2.5,5.5-5.5S468,201,465,201z"></path>
	<path class="st7" d="M465,192c-4.7,0-8.5-3.8-8.5-8.5s3.8-8.5,8.5-8.5s8.5,3.8,8.5,8.5S469.7,192,465,192z M465,178   c-3,0-5.5,2.5-5.5,5.5s2.5,5.5,5.5,5.5s5.5-2.5,5.5-5.5S468,178,465,178z"></path>
	<path class="st7" d="M465,147.1c-4.7,0-8.5-3.8-8.5-8.5s3.8-8.5,8.5-8.5s8.5,3.8,8.5,8.5S469.7,147.1,465,147.1z M465,133.2   c-3,0-5.5,2.5-5.5,5.5s2.5,5.5,5.5,5.5s5.5-2.5,5.5-5.5S468,133.2,465,133.2z"></path>
	<path class="st7" d="M465,389.6c-4.7,0-8.5-3.8-8.5-8.5s3.8-8.5,8.5-8.5s8.5,3.8,8.5,8.5S469.7,389.6,465,389.6z M465,375.6   c-3,0-5.5,2.5-5.5,5.5s2.5,5.5,5.5,5.5s5.5-2.5,5.5-5.5S468,375.6,465,375.6z"></path>
	<rect x="670.8" y="227.3" class="st7" width="39.9" height="96.9"></rect>
	<rect x="689.2" y="193.4" class="st7" width="3" height="170.7"></rect>
	<rect x="678.3" y="190.9" class="st10" width="24.9" height="3"></rect>
	<rect x="678.3" y="360.6" class="st7" width="24.9" height="3"></rect>
	<path class="st10" d="M691.5,175c-4.7,0-8.5-3.8-8.5-8.5s3.8-8.5,8.5-8.5s8.5,3.8,8.5,8.5S696.1,175,691.5,175z M691.5,161   c-3,0-5.5,2.5-5.5,5.5s2.5,5.5,5.5,5.5s5.5-2.5,5.5-5.5S694.5,161,691.5,161z"></path>
	<path class="st10" d="M691.5,152c-4.7,0-8.5-3.8-8.5-8.5s3.8-8.5,8.5-8.5s8.5,3.8,8.5,8.5S696.1,152,691.5,152z M691.5,138   c-3,0-5.5,2.5-5.5,5.5s2.5,5.5,5.5,5.5s5.5-2.5,5.5-5.5S694.5,138,691.5,138z"></path>
	<path class="st7" d="M691.5,389.6c-4.7,0-8.5-3.8-8.5-8.5s3.8-8.5,8.5-8.5s8.5,3.8,8.5,8.5S696.1,389.6,691.5,389.6z M691.5,375.6   c-3,0-5.5,2.5-5.5,5.5s2.5,5.5,5.5,5.5s5.5-2.5,5.5-5.5S694.5,375.6,691.5,375.6z"></path>
	<g>
		<polygon class="st6" points="795.5,66.4 574.9,66.4 574.9,229.9 669.8,229.9 691.1,242.3 713,229.9 795.5,229.9   "></polygon>
	</g>
	<rect x="585" y="103.8" class="st7" width="200.5" height="116.8"></rect>
	<polygon class="st8" points="783.5,81.9 781.4,79.8 777.9,83.2 774.5,79.8 772.3,81.9 775.8,85.3 772.3,88.8 774.5,90.9    777.9,87.5 781.4,90.9 783.5,88.8 780.1,85.3  "></polygon>
	<g>
		<path class="st6" d="M685.2,141.6c10.8,0,19.5,8.7,19.5,19.5s-8.7,19.5-19.5,19.5c-10.8,0-19.5-8.7-19.5-19.5    S674.4,141.6,685.2,141.6z M685.2,144.2c-9.3,0-16.9,7.6-16.9,16.9s7.6,16.9,16.9,16.9s16.9-7.6,16.9-16.9    S694.6,144.2,685.2,144.2z"></path>
		<polygon class="st6" points="692.5,161.2 680.5,154.3 680.5,168.1   "></polygon>
	</g>
</g>
</svg>
